<svg width="26" height="26" viewBox="0 0 26 26" fill="none" xmlns="http://www.w3.org/2000/svg">
<path d="M19.2928 7.29279C19.1053 7.10532 18.851 7 18.5858 7C18.3206 7 18.0663 7.10532 17.8788 7.29279L13.2928 11.8788L8.70679 7.29279C8.51926 7.10532 8.26495 7 7.99979 7C7.73462 7 7.48031 7.10532 7.29279 7.29279C7.10532 7.48031 7 7.73462 7 7.99979C7 8.26495 7.10532 8.51926 7.29279 8.70679L11.8788 13.2928L7.29279 17.8788C7.10532 18.0663 7 18.3206 7 18.5858C7 18.851 7.10532 19.1053 7.29279 19.2928C7.48031 19.4803 7.73462 19.5856 7.99979 19.5856C8.26495 19.5856 8.51926 19.4803 8.70679 19.2928L13.2928 14.7068L17.8788 19.2928C18.0663 19.4803 18.3206 19.5856 18.5858 19.5856C18.851 19.5856 19.1053 19.4803 19.2928 19.2928C19.4803 19.1053 19.5856 18.851 19.5856 18.5858C19.5856 18.3206 19.4803 18.0663 19.2928 17.8788L14.7068 13.2928L19.2928 8.70679C19.4803 8.51926 19.5856 8.26495 19.5856 7.99979C19.5856 7.73462 19.4803 7.48031 19.2928 7.29279Z" fill="white"/>
<circle cx="13" cy="13" r="12" stroke="white" stroke-width="2"/>
</svg>
