<svg width="9" height="10" viewBox="0 0 9 10" fill="none" xmlns="http://www.w3.org/2000/svg">
<path d="M8 4.5C8 7.22222 4.5 9.55556 4.5 9.55556C4.5 9.55556 1 7.22222 1 4.5C1 3.57174 1.36875 2.6815 2.02513 2.02513C2.6815 1.36875 3.57174 1 4.5 1C5.42826 1 6.3185 1.36875 6.97487 2.02513C7.63125 2.6815 8 3.57174 8 4.5Z" stroke="#F2AB04" stroke-width="0.7" stroke-linecap="round" stroke-linejoin="round"/>
<path d="M4.50016 5.66683C5.14449 5.66683 5.66683 5.14449 5.66683 4.50016C5.66683 3.85583 5.14449 3.3335 4.50016 3.3335C3.85583 3.3335 3.3335 3.85583 3.3335 4.50016C3.3335 5.14449 3.85583 5.66683 4.50016 5.66683Z" stroke="#F2AB04" stroke-width="0.7" stroke-linecap="round" stroke-linejoin="round"/>
</svg>
