<svg width="16" height="18" viewBox="0 0 16 18" fill="none" xmlns="http://www.w3.org/2000/svg">
<path d="M15.8654 10.2436L14.4678 5.11722C14.0582 3.61539 13.1679 2.29626 11.9385 1.3695C10.7091 0.442742 9.21109 -0.0384528 7.68264 0.0024026C6.15418 0.043258 4.68298 0.603819 3.50289 1.59498C2.3228 2.58614 1.50153 3.95103 1.16965 5.47268L0.0876361 10.4334C-0.0318811 10.9815 -0.0291178 11.55 0.095722 12.0969C0.220562 12.6438 0.46429 13.1551 0.808913 13.5932C1.15354 14.0312 1.59025 14.3847 2.08682 14.6276C2.58339 14.8705 3.12714 14.9966 3.67791 14.9966H4.49732C4.66614 15.8442 5.1172 16.6063 5.77406 17.1536C6.43093 17.701 7.2532 18 8.10157 18C8.94993 18 9.77221 17.701 10.4291 17.1536C11.0859 16.6063 11.537 15.8442 11.7058 14.9966H12.3222C12.8892 14.9966 13.4485 14.863 13.9564 14.6062C14.4644 14.3494 14.9072 13.9763 15.2503 13.5162C15.5935 13.056 15.8276 12.5212 15.9344 11.9535C16.0412 11.3858 16.0171 10.8006 15.8654 10.2436ZM8.10157 16.4964C7.6468 16.4945 7.20372 16.3494 6.83295 16.0809C6.46217 15.8124 6.18182 15.4337 6.03023 14.9966H10.1729C10.0213 15.4337 9.74096 15.8124 9.37019 16.0809C8.99941 16.3494 8.55633 16.4945 8.10157 16.4964ZM14.0787 12.6081C13.8738 12.8853 13.6082 13.11 13.3032 13.2643C12.9981 13.4185 12.662 13.4981 12.3215 13.4968H3.67791C3.34748 13.4967 3.02129 13.421 2.7234 13.2752C2.42551 13.1294 2.16354 12.9173 1.95681 12.6545C1.75009 12.3917 1.60389 12.0849 1.52901 11.7568C1.45413 11.4287 1.45248 11.0877 1.52419 10.7588L2.60546 5.79739C2.86611 4.60218 3.51116 3.5301 4.43808 2.75157C5.36499 1.97305 6.52057 1.53276 7.72112 1.50069C8.92166 1.46863 10.0983 1.84663 11.0639 2.57461C12.0295 3.30259 12.7287 4.33877 13.0504 5.51842L14.448 10.6448C14.5403 10.9788 14.555 11.3302 14.4909 11.671C14.4268 12.0118 14.2857 12.3326 14.0787 12.6081Z" fill="#006C3D"/>
</svg>
